<?xml version="1.0" encoding="utf-8"?>
<!-- Generator: Adobe Illustrator 16.0.0, SVG Export Plug-In . SVG Version: 6.00 Build 0)  -->
<!DOCTYPE svg PUBLIC "-//W3C//DTD SVG 1.1//EN" "http://www.w3.org/Graphics/SVG/1.1/DTD/svg11.dtd">
<svg version="1.1" id="e6c7a302-1d79-4c46-b758-a00a31f9e26b"
	 xmlns="http://www.w3.org/2000/svg" xmlns:xlink="http://www.w3.org/1999/xlink" x="0px" y="0px" width="867.189px"
	 height="752.719px" viewBox="0 0 867.189 752.719" enable-background="new 0 0 867.189 752.719" xml:space="preserve">
<title>new message</title>
<linearGradient id="SVGID_1_" gradientUnits="userSpaceOnUse" x1="279.616" y1="156.7886" x2="279.616" y2="221.1694" gradientTransform="matrix(-0.9583 0.2857 -0.2857 -0.9583 779.2271 600.5454)">
	<stop  offset="0" style="stop-color:#808080;stop-opacity:0.25"/>
	<stop  offset="0.54" style="stop-color:#808080;stop-opacity:0.12"/>
	<stop  offset="1" style="stop-color:#808080;stop-opacity:0.1"/>
</linearGradient>
<polygon fill="url(#SVGID_1_)" points="397.883,483.442 498.277,453.514 516.669,515.209 416.276,545.139 "/>
<rect x="406.042" y="468.891" transform="matrix(-0.9583 0.2857 -0.2857 -0.9583 1036.8009 846.6221)" fill="#FFFFFF" width="101.21" height="60.09"/>
<g opacity="0.6">
	
		<rect x="406.229" y="485.583" transform="matrix(0.9583 -0.2857 0.2857 0.9583 -122.8916 138.3369)" fill="#6C63FF" width="12.88" height="9.53"/>
	
		<rect x="421.807" y="501.413" transform="matrix(0.9583 -0.2857 0.2857 0.9583 -125.082 148.5346)" fill="#6C63FF" width="49.441" height="3.089"/>
	
		<rect x="436.984" y="506.921" transform="matrix(0.9583 -0.2857 0.2857 0.9583 -126.1519 151.1601)" fill="#6C63FF" width="36.049" height="2.061"/>
</g>
<linearGradient id="SVGID_2_" gradientUnits="userSpaceOnUse" x1="60.1667" y1="372.3096" x2="60.1667" y2="436.6895" gradientTransform="matrix(-0.9816 -0.1912 0.1912 -0.9816 681.7273 757.3989)">
	<stop  offset="0" style="stop-color:#808080;stop-opacity:0.25"/>
	<stop  offset="0.54" style="stop-color:#808080;stop-opacity:0.12"/>
	<stop  offset="1" style="stop-color:#808080;stop-opacity:0.1"/>
</linearGradient>
<polygon fill="url(#SVGID_2_)" points="642.424,370.441 654.73,307.249 757.558,327.273 745.252,390.466 "/>
<rect x="667.958" y="298.573" transform="matrix(-0.1903 0.9817 -0.9817 -0.1903 1173.501 -269.6591)" fill="#FFFFFF" width="59.985" height="101.033"/>
<g opacity="0.6">
	
		<rect x="658.075" y="315.542" transform="matrix(0.9816 0.1911 -0.1911 0.9816 73.4761 -121.1107)" fill="#6C63FF" width="12.88" height="9.53"/>
	
		<rect x="663.946" y="345.631" transform="matrix(0.9816 0.1912 -0.1912 0.9816 79.0634 -125.2398)" fill="#6C63FF" width="49.44" height="3.09"/>
	
		<rect x="675.839" y="354.513" transform="matrix(0.9816 0.1912 -0.1912 0.9816 80.7595 -126.0804)" fill="#6C63FF" width="36.05" height="2.06"/>
</g>
<linearGradient id="SVGID_3_" gradientUnits="userSpaceOnUse" x1="-103.9543" y1="177.7759" x2="-103.9543" y2="242.1558" gradientTransform="matrix(-0.3979 -0.9174 0.9174 -0.3979 475.9977 481.0565)">
	<stop  offset="0" style="stop-color:#808080;stop-opacity:0.25"/>
	<stop  offset="0.54" style="stop-color:#808080;stop-opacity:0.12"/>
	<stop  offset="1" style="stop-color:#808080;stop-opacity:0.1"/>
</linearGradient>
<polygon fill="url(#SVGID_3_)" points="659.615,457.625 718.677,432.006 760.366,528.114 701.304,553.733 "/>
<rect x="680.251" y="441.603" transform="matrix(-0.9174 0.3979 -0.3979 -0.9174 1557.7986 661.1108)" fill="#FFFFFF" width="60.09" height="101.211"/>
<g opacity="0.6">
	
		<rect x="706.988" y="442.719" transform="matrix(0.398 0.9174 -0.9174 0.398 840.0269 -385.0989)" fill="#47E6B1" width="12.88" height="9.53"/>
	
		<rect x="680.226" y="481.061" transform="matrix(0.3979 0.9174 -0.9174 0.3979 867.1637 -356.1682)" fill="#47E6B1" width="49.439" height="3.09"/>
	
		<rect x="682.962" y="490.593" transform="matrix(0.3979 0.9174 -0.9174 0.3979 873.0533 -347.1079)" fill="#47E6B1" width="36.05" height="2.06"/>
</g>
<linearGradient id="SVGID_4_" gradientUnits="userSpaceOnUse" x1="256.6062" y1="466.5981" x2="256.6062" y2="530.978" gradientTransform="matrix(-0.9583 0.2857 -0.2857 -0.9583 779.229 600.5269)">
	<stop  offset="0" style="stop-color:#808080;stop-opacity:0.25"/>
	<stop  offset="0.54" style="stop-color:#808080;stop-opacity:0.12"/>
	<stop  offset="1" style="stop-color:#808080;stop-opacity:0.1"/>
</linearGradient>
<polygon fill="url(#SVGID_4_)" points="331.426,179.953 431.82,150.024 450.212,211.721 349.819,241.649 "/>
<rect x="339.585" y="165.411" transform="matrix(-0.9583 0.2857 -0.2857 -0.9583 819.9578 271.2939)" fill="#FFFFFF" width="101.21" height="60.09"/>
<g opacity="0.6">
	
		<rect x="339.716" y="182.123" transform="matrix(0.9583 -0.2857 0.2857 0.9583 -38.9658 106.686)" fill="#F55F44" width="12.88" height="9.53"/>
	
		<rect x="355.304" y="197.949" transform="matrix(0.9583 -0.2857 0.2857 0.9583 -41.1547 116.8825)" fill="#F55F44" width="49.44" height="3.09"/>
	
		<rect x="370.471" y="203.462" transform="matrix(0.9583 -0.2857 0.2857 0.9583 -42.2286 119.5076)" fill="#F55F44" width="36.05" height="2.06"/>
</g>
<linearGradient id="SVGID_5_" gradientUnits="userSpaceOnUse" x1="183.4363" y1="657.479" x2="183.4363" y2="721.8589" gradientTransform="matrix(-0.9816 -0.1912 0.1912 -0.9816 681.7312 757.3989)">
	<stop  offset="0" style="stop-color:#808080;stop-opacity:0.25"/>
	<stop  offset="0.54" style="stop-color:#808080;stop-opacity:0.12"/>
	<stop  offset="1" style="stop-color:#808080;stop-opacity:0.1"/>
</linearGradient>
<polygon fill="url(#SVGID_5_)" points="575.942,66.967 588.248,3.774 691.076,23.799 678.77,86.992 "/>
<rect x="603.089" y="-5.844" transform="matrix(-0.1912 0.9816 -0.9816 -0.1912 798.0948 -568.1418)" fill="#FFFFFF" width="60.09" height="101.21"/>
<g opacity="0.6">
	
		<rect x="591.59" y="12.074" transform="matrix(0.9816 0.1911 -0.1911 0.9816 14.2449 -113.9979)" fill="#6C63FF" width="12.88" height="9.53"/>
	
		<rect x="597.462" y="42.164" transform="matrix(0.9816 0.1912 -0.1912 0.9816 19.8282 -118.127)" fill="#6C63FF" width="49.44" height="3.09"/>
	
		<rect x="609.356" y="51.036" transform="matrix(0.9816 0.1912 -0.1912 0.9816 21.5212 -118.9649)" fill="#6C63FF" width="36.05" height="2.06"/>
</g>
<linearGradient id="SVGID_6_" gradientUnits="userSpaceOnUse" x1="200.9143" y1="237.5361" x2="200.9143" y2="301.917" gradientTransform="matrix(-0.3979 -0.9174 0.9174 -0.3979 476.0016 481.0623)">
	<stop  offset="0" style="stop-color:#808080;stop-opacity:0.25"/>
	<stop  offset="0.54" style="stop-color:#808080;stop-opacity:0.12"/>
	<stop  offset="1" style="stop-color:#808080;stop-opacity:0.1"/>
</linearGradient>
<polygon fill="url(#SVGID_6_)" points="593.12,154.16 652.184,128.54 693.872,224.647 634.81,250.268 "/>
<rect x="613.766" y="138.133" transform="matrix(-0.9174 0.398 -0.398 -0.9174 1309.5564 105.6809)" fill="#FFFFFF" width="60.09" height="101.21"/>
<g opacity="0.6">
	
		<rect x="640.508" y="139.254" transform="matrix(0.3979 0.9174 -0.9174 0.3979 521.6503 -506.8138)" fill="#47E6B1" width="12.88" height="9.529"/>
	
		<rect x="613.736" y="177.597" transform="matrix(0.3979 0.9174 -0.9174 0.3979 548.7368 -477.8726)" fill="#47E6B1" width="49.44" height="3.089"/>
	
		<rect x="616.476" y="187.136" transform="matrix(0.3979 0.9174 -0.9174 0.3979 554.6309 -468.8105)" fill="#47E6B1" width="36.05" height="2.06"/>
</g>
<linearGradient id="SVGID_7_" gradientUnits="userSpaceOnUse" x1="592.1467" y1="328.3081" x2="592.1467" y2="392.6895" gradientTransform="matrix(-0.9583 0.2857 -0.2857 -0.9583 779.2251 600.5337)">
	<stop  offset="0" style="stop-color:#808080;stop-opacity:0.25"/>
	<stop  offset="0.54" style="stop-color:#808080;stop-opacity:0.12"/>
	<stop  offset="1" style="stop-color:#808080;stop-opacity:0.1"/>
</linearGradient>
<polygon fill="url(#SVGID_7_)" points="49.374,408.346 149.768,378.417 168.16,440.114 67.767,470.043 "/>
<rect x="57.543" y="393.802" transform="matrix(-0.9583 0.2857 -0.2857 -0.9583 332.8786 799.131)" fill="#FFFFFF" width="101.21" height="60.09"/>
<g opacity="0.6">
	
		<rect x="57.721" y="410.552" transform="matrix(0.9583 -0.2857 0.2857 0.9583 -115.9813 35.6413)" fill="#6C63FF" width="12.88" height="9.53"/>
	
		<rect x="73.309" y="426.378" transform="matrix(0.9583 -0.2857 0.2857 0.9583 -118.1559 45.8342)" fill="#6C63FF" width="49.44" height="3.09"/>
	
		<rect x="88.485" y="431.887" transform="matrix(0.9583 -0.2857 0.2857 0.9583 -119.2569 48.4814)" fill="#6C63FF" width="36.051" height="2.06"/>
</g>
<linearGradient id="SVGID_8_" gradientUnits="userSpaceOnUse" x1="416.5974" y1="379.3794" x2="416.5974" y2="443.7593" gradientTransform="matrix(-0.9816 -0.1912 0.1912 -0.9816 681.7312 757.4067)">
	<stop  offset="0" style="stop-color:#808080;stop-opacity:0.25"/>
	<stop  offset="0.54" style="stop-color:#808080;stop-opacity:0.12"/>
	<stop  offset="1" style="stop-color:#808080;stop-opacity:0.1"/>
</linearGradient>
<polygon fill="url(#SVGID_8_)" points="293.921,295.377 306.228,232.185 409.056,252.209 396.749,315.402 "/>
<rect x="319.974" y="223.052" transform="matrix(-0.1903 0.9817 -0.9817 -0.1903 685.1438 -17.932)" fill="#FFFFFF" width="59.985" height="101.032"/>
<g opacity="0.6">
	
		<rect x="309.561" y="240.475" transform="matrix(0.9816 0.1912 -0.1912 0.9816 52.713 -55.8891)" fill="#F55F44" width="12.88" height="9.53"/>
	
		<rect x="315.442" y="270.566" transform="matrix(0.9816 0.1912 -0.1912 0.9816 58.2879 -60.0059)" fill="#F55F44" width="49.44" height="3.09"/>
	
		<rect x="327.335" y="279.447" transform="matrix(0.9816 0.1911 -0.1911 0.9816 59.9774 -60.8405)" fill="#F55F44" width="36.05" height="2.06"/>
</g>
<linearGradient id="SVGID_9_" gradientUnits="userSpaceOnUse" x1="103.5955" y1="-112.0835" x2="103.5955" y2="-47.7036" gradientTransform="matrix(-0.3979 -0.9174 0.9174 -0.3979 476.0016 481.0545)">
	<stop  offset="0" style="stop-color:#808080;stop-opacity:0.25"/>
	<stop  offset="0.54" style="stop-color:#808080;stop-opacity:0.12"/>
	<stop  offset="1" style="stop-color:#808080;stop-opacity:0.1"/>
</linearGradient>
<polygon fill="url(#SVGID_9_)" points="311.105,382.565 370.167,356.945 411.857,453.053 352.794,478.672 "/>
<rect x="331.75" y="366.539" transform="matrix(-0.9174 0.3979 -0.3979 -0.9174 859.7076 655.864)" fill="#FFFFFF" width="60.09" height="101.211"/>
<g opacity="0.6">
	
		<rect x="358.483" y="367.659" transform="matrix(0.398 0.9174 -0.9174 0.398 561.3568 -110.5689)" fill="#47E6B1" width="12.88" height="9.53"/>
	
		<rect x="331.721" y="405.993" transform="matrix(0.3979 0.9174 -0.9174 0.3979 588.4754 -81.6432)" fill="#47E6B1" width="49.441" height="3.09"/>
	
		<rect x="334.46" y="415.528" transform="matrix(0.3979 0.9174 -0.9174 0.3979 594.3705 -72.5818)" fill="#47E6B1" width="36.05" height="2.06"/>
</g>
<linearGradient id="SVGID_10_" gradientUnits="userSpaceOnUse" x1="529.0461" y1="498.6079" x2="529.0461" y2="562.9878" gradientTransform="matrix(-0.9583 0.2857 -0.2857 -0.9583 779.2192 600.5356)">
	<stop  offset="0" style="stop-color:#808080;stop-opacity:0.25"/>
	<stop  offset="0.54" style="stop-color:#808080;stop-opacity:0.12"/>
	<stop  offset="1" style="stop-color:#808080;stop-opacity:0.1"/>
</linearGradient>
<polygon fill="url(#SVGID_10_)" points="61.187,227.118 161.581,197.189 179.974,258.886 79.579,288.815 "/>
<rect x="71.049" y="211.786" transform="matrix(-0.9573 0.2892 -0.2892 -0.9573 308.3483 438.2774)" fill="#FFFFFF" width="101.498" height="60.261"/>
<g opacity="0.6">
	
		<rect x="69.505" y="229.328" transform="matrix(0.9583 -0.2857 0.2857 0.9583 -63.7102 31.4515)" fill="#6C63FF" width="12.881" height="9.53"/>
	
		<rect x="85.083" y="245.157" transform="matrix(0.9583 -0.2857 0.2857 0.9583 -65.9033 41.6513)" fill="#6C63FF" width="49.44" height="3.09"/>
	
		<rect x="100.26" y="250.666" transform="matrix(0.9583 -0.2857 0.2857 0.9583 -66.975 44.281)" fill="#6C63FF" width="36.05" height="2.06"/>
</g>
<linearGradient id="SVGID_11_" gradientUnits="userSpaceOnUse" x1="439.9446" y1="559.4917" x2="439.9446" y2="623.8716" gradientTransform="matrix(-0.98 -0.19 0.19 -0.98 681.1307 756.6415)">
	<stop  offset="0" style="stop-color:#808080;stop-opacity:0.25"/>
	<stop  offset="0.54" style="stop-color:#808080;stop-opacity:0.12"/>
	<stop  offset="1" style="stop-color:#808080;stop-opacity:0.1"/>
</linearGradient>
<polygon fill="url(#SVGID_11_)" points="304.956,114.797 317.189,51.705 419.853,71.609 407.621,134.702 "/>
<rect x="332.864" y="41.342" transform="matrix(-0.1912 0.9816 -0.9816 -0.1912 522.5317 -246.6949)" fill="#FFFFFF" width="60.09" height="101.21"/>
<g opacity="0.6">
	
		<rect x="321.366" y="59.259" transform="matrix(0.9816 0.1911 -0.1911 0.9816 18.2816 -61.4769)" fill="#6C63FF" width="12.88" height="9.53"/>
	
		<rect x="327.239" y="89.338" transform="matrix(0.9816 0.1912 -0.1912 0.9816 23.863 -65.6027)" fill="#6C63FF" width="49.44" height="3.09"/>
	
		<rect x="339.122" y="98.219" transform="matrix(0.9816 0.1912 -0.1912 0.9816 25.5573 -66.4392)" fill="#F55F44" width="36.05" height="2.06"/>
</g>
<linearGradient id="SVGID_12_" gradientUnits="userSpaceOnUse" x1="265.155" y1="-29.144" x2="265.155" y2="35.2363" gradientTransform="matrix(-0.3979 -0.9174 0.9174 -0.3979 476.0036 481.0584)">
	<stop  offset="0" style="stop-color:#808080;stop-opacity:0.25"/>
	<stop  offset="0.54" style="stop-color:#808080;stop-opacity:0.12"/>
	<stop  offset="1" style="stop-color:#808080;stop-opacity:0.1"/>
</linearGradient>
<polygon fill="url(#SVGID_12_)" points="322.904,201.347 381.967,175.727 423.656,271.834 364.593,297.455 "/>
<rect x="343.54" y="185.324" transform="matrix(-0.9174 0.398 -0.398 -0.9174 810.2024 303.7028)" fill="#FFFFFF" width="60.09" height="101.21"/>
<g opacity="0.6">
	
		<rect x="370.289" y="186.44" transform="matrix(0.398 0.9174 -0.9174 0.398 402.2132 -230.4995)" fill="#47E6B1" width="12.88" height="9.53"/>
	
		<rect x="343.516" y="224.782" transform="matrix(0.398 0.9174 -0.9174 0.398 429.3311 -201.5625)" fill="#47E6B1" width="49.44" height="3.09"/>
	
		<rect x="346.262" y="234.299" transform="matrix(0.3979 0.9174 -0.9174 0.3979 435.2169 -192.5186)" fill="#47E6B1" width="36.05" height="2.06"/>
</g>
<circle opacity="0.25" fill="#535461" enable-background="new    " cx="63.9" cy="61.26" r="5.47"/>
<circle opacity="0.25" fill="#535461" enable-background="new    " cx="634.96" cy="540.36" r="5.471"/>
<circle opacity="0.25" fill="#535461" enable-background="new    " cx="151.79" cy="513.16" r="5.47"/>
<circle opacity="0.25" fill="#535461" enable-background="new    " cx="685.81" cy="437.02" r="5.471"/>
<circle opacity="0.25" fill="#535461" enable-background="new    " cx="737.28" cy="186.1" r="5.47"/>
<polygon opacity="0.25" fill="#535461" enable-background="new    " points="333.44,4.87 328.579,4.87 328.579,0 326.59,0 
	326.59,4.87 321.73,4.87 321.73,6.85 326.59,6.85 326.59,11.71 328.579,11.71 328.579,6.85 333.44,6.85 "/>
<polygon opacity="0.25" fill="#535461" enable-background="new    " points="146.29,79.4 141.43,79.4 141.43,74.54 139.44,74.54 
	139.44,79.4 134.58,79.4 134.58,81.39 139.44,81.39 139.44,86.25 141.43,86.25 141.43,81.39 146.29,81.39 "/>
<polygon opacity="0.25" fill="#535461" enable-background="new    " points="70.16,357.13 65.3,357.13 65.3,352.27 63.31,352.27 
	63.31,357.13 58.45,357.13 58.45,359.12 63.31,359.12 63.31,363.98 65.3,363.98 65.3,359.12 70.16,359.12 "/>
<polygon opacity="0.25" fill="#535461" enable-background="new    " points="59.23,159.07 54.36,159.07 54.36,154.2 52.38,154.2 
	52.38,159.07 47.51,159.07 47.51,161.05 52.38,161.05 52.38,165.92 54.36,165.92 54.36,161.05 59.23,161.05 "/>
<polygon opacity="0.25" fill="#535461" enable-background="new    " points="11.71,295.17 6.85,295.17 6.85,290.3 4.87,290.3 
	4.87,295.17 0,295.17 0,297.15 4.87,297.15 4.87,302.01 6.85,302.01 6.85,297.15 11.71,297.15 "/>
<polygon opacity="0.25" fill="#535461" enable-background="new    " points="867.19,224.99 862.329,224.99 862.329,220.13 
	860.34,220.13 860.34,224.99 855.48,224.99 855.48,226.98 860.34,226.98 860.34,231.84 862.329,231.84 862.329,226.98 
	867.19,226.98 "/>
<polygon opacity="0.25" fill="#535461" enable-background="new    " points="697.76,288.26 692.9,288.26 692.9,283.39 
	690.909,283.39 690.909,288.26 686.05,288.26 686.05,290.24 690.909,290.24 690.909,295.11 692.9,295.11 692.9,290.24 
	697.76,290.24 "/>
<polygon opacity="0.25" fill="#535461" enable-background="new    " points="553.079,117.62 548.21,117.62 548.21,112.76 
	546.23,112.76 546.23,117.62 541.36,117.62 541.36,119.61 546.23,119.61 546.23,124.47 548.21,124.47 548.21,119.61 553.079,119.61 
	"/>
<linearGradient id="SVGID_13_" gradientUnits="userSpaceOnUse" x1="429.8176" y1="161.5239" x2="532.9153" y2="161.5239" gradientTransform="matrix(1 0 0 -1 -158 655.2393)">
	<stop  offset="0" style="stop-color:#808080;stop-opacity:0.25"/>
	<stop  offset="0.54" style="stop-color:#808080;stop-opacity:0.12"/>
	<stop  offset="1" style="stop-color:#808080;stop-opacity:0.1"/>
</linearGradient>
<path fill="none" stroke="url(#SVGID_13_)" stroke-width="2" stroke-miterlimit="10" d="M273.9,395.741
	c-3.5,11.359,1.75,24.789,12,30.77c4.29,2.5,9.24,3.77,13.41,6.48c9.05,5.889,12.62,17.189,15.56,27.58
	c3.37,11.949,6.761,24.58,3.67,36.6c-2,7.66-6.449,14.439-9,21.939c-2.13,6.279-2.87,12.947-2.17,19.541
	c0.37,3.5,1.25,7.139,3.641,9.719c3.46,3.73,9,4.291,14,5.189c21.48,4.08,39.703,18.211,49,38"/>
<path fill="none" stroke="#535461" stroke-width="2" stroke-miterlimit="10" d="M274.97,395.741c-3.5,11.359,1.75,24.789,12,30.77
	c4.29,2.5,9.24,3.77,13.41,6.48c9.05,5.889,12.62,17.189,15.56,27.58c3.37,11.949,6.76,24.58,3.67,36.6
	c-2,7.66-6.45,14.439-9,21.939c-2.13,6.279-2.87,12.947-2.17,19.541c0.37,3.5,1.25,7.139,3.64,9.719c3.46,3.73,9,4.291,14,5.189
	c21.481,4.08,39.704,18.211,49,38"/>
<linearGradient id="SVGID_14_" gradientUnits="userSpaceOnUse" x1="546.0588" y1="203.7822" x2="578.0227" y2="203.7822" gradientTransform="matrix(1 0 0 -1 -158 655.2393)">
	<stop  offset="0" style="stop-color:#808080;stop-opacity:0.25"/>
	<stop  offset="0.54" style="stop-color:#808080;stop-opacity:0.12"/>
	<stop  offset="1" style="stop-color:#808080;stop-opacity:0.1"/>
</linearGradient>
<path fill="none" stroke="url(#SVGID_14_)" stroke-width="2" stroke-miterlimit="10" d="M407.44,310.86
	c-8.63,12-17.59,25-18.33,39.77c-1.13,22.73,17,41.32,25.17,62.58c7.101,18.918,6.197,39.912-2.5,58.15
	c-4,8.189-9.609,16.32-8.92,25.391c0.42,5.539,3.19,10.57,5.42,15.66c11.101,25.869,9.198,55.482-5.12,79.719"/>
<path fill="none" stroke="#535461" stroke-width="2" stroke-miterlimit="10" d="M408.51,310.86c-8.63,12-17.59,25-18.33,39.77
	c-1.13,22.73,17,41.32,25.17,62.58c7.103,18.918,6.204,39.91-2.49,58.15c-4,8.189-9.609,16.32-8.92,25.391
	c0.42,5.539,3.19,10.57,5.42,15.66c11.101,25.869,9.198,55.482-5.12,79.719"/>
<linearGradient id="SVGID_15_" gradientUnits="userSpaceOnUse" x1="661.2795" y1="146.2002" x2="692.1711" y2="146.2002" gradientTransform="matrix(1 0 0 -1 -158 655.2393)">
	<stop  offset="0" style="stop-color:#808080;stop-opacity:0.25"/>
	<stop  offset="0.54" style="stop-color:#808080;stop-opacity:0.12"/>
	<stop  offset="1" style="stop-color:#808080;stop-opacity:0.1"/>
</linearGradient>
<path fill="none" stroke="url(#SVGID_15_)" stroke-width="2" stroke-miterlimit="10" d="M528.6,419.12l4.17,34
	c0.55,4.52,1,9.451-1.4,13.301c-2.3,3.65-6.609,5.389-10,8.09c-11,8.85-10,25.85-6.239,39.48c3.76,13.629,9.279,28.27,4,41.379
	c-2.181,5.41-6,10-8.91,15c-4.877,8.682-6.811,18.709-5.511,28.58"/>
<path fill="none" stroke="#535461" stroke-width="2" stroke-miterlimit="10" d="M529.6,419.12l4.17,34c0.55,4.52,1,9.451-1.4,13.301
	c-2.3,3.65-6.609,5.389-10,8.09c-11,8.85-10,25.85-6.239,39.48c3.76,13.629,9.279,28.27,4,41.379c-2.181,5.41-6,10-8.91,15
	c-4.877,8.682-6.811,18.709-5.511,28.58"/>
<g opacity="0.7">
	
		<linearGradient id="SVGID_16_" gradientUnits="userSpaceOnUse" x1="562.6604" y1="222.2896" x2="562.6604" y2="589.8596" gradientTransform="matrix(1 0 0 -1 -158 655.2393)">
		<stop  offset="0" style="stop-color:#808080;stop-opacity:0.25"/>
		<stop  offset="0.54" style="stop-color:#808080;stop-opacity:0.12"/>
		<stop  offset="1" style="stop-color:#808080;stop-opacity:0.1"/>
	</linearGradient>
	<path fill="url(#SVGID_16_)" d="M636.82,279.25c-0.045-55.726-45.256-100.864-100.981-100.819
		c-10.55,0.009-21.033,1.672-31.068,4.929c0.834-5.669,1.266-11.39,1.29-17.12c0.343-55.691-44.525-101.116-100.217-101.459
		c-53.357-0.329-97.735,40.966-101.243,94.209c-52.994-17.231-109.924,11.76-127.155,64.755
		c-3.269,10.052-4.937,20.555-4.944,31.125c0,50.6,37.26,122.57,85.85,135.32l7.55,4.32l-4.1,14.06h24.3l-5.28-14.079l7.521-4.301
		c37.54-9.85,68.31-55.05,80.37-98.44c6.596,4.399,13.859,7.705,21.51,9.79l7.55,4.32l-4.1,14.06h24.3l-5.28-14.08l7.521-4.3
		c5.579-1.501,10.953-3.685,16-6.5c6.489,48.65,41,108.06,84.739,119.531l7.551,4.319l-4.101,14.06h24.3l-5.279-14.08l7.52-4.299
		C599.6,401.82,636.82,329.85,636.82,279.25z"/>
</g>
<polygon fill="#F55F44" points="289.93,403.411 266.42,403.411 270.53,389.299 284.64,389.299 "/>
<path fill="#F55F44" d="M375.17,254.69c0,53.89-43.69,132.85-97.58,132.85s-97.58-79-97.58-132.85
	c0.03-53.892,43.742-97.556,97.635-97.525C331.493,157.195,375.14,200.841,375.17,254.69L375.17,254.69z"/>
<polygon fill="#535461" points="284.64,389.89 270.53,389.89 262.3,385.19 292.87,385.19 "/>
<path opacity="0.1" fill="#FFFFFF" enable-background="new    " d="M242.32,178.86c0,0-41.149,22.34-47,67"/>
<polygon fill="#4D8AF0" points="417.539,317.63 394.03,317.63 398.14,303.52 412.25,303.52 "/>
<path fill="#4D8AF0" d="M502.78,168.9c0,53.89-43.689,132.85-97.58,132.85c-53.89,0-97.6-78.95-97.6-132.85
	c0-53.892,43.688-97.58,97.58-97.58c53.892,0,97.58,43.688,97.58,97.58H502.78z"/>
<polygon fill="#535461" points="412.25,304.11 398.14,304.11 389.909,299.4 420.48,299.4 "/>
<path opacity="0.1" fill="#FFFFFF" enable-background="new    " d="M369.93,93.07c0,0-41.15,22.34-47,67"/>
<polygon fill="#3AD29F" points="544.079,427 520.56,427 524.68,412.9 538.78,412.9 "/>
<path fill="#3AD29F" d="M629.32,278.28c0,53.89-43.689,132.849-97.58,132.849c-53.89,0-97.58-79-97.58-132.849
	c0-53.892,43.688-97.58,97.58-97.58C585.632,180.7,629.32,224.388,629.32,278.28z"/>
<polygon fill="#535461" points="538.78,413.48 524.68,413.48 516.449,408.78 547.01,408.78 "/>
<path opacity="0.1" fill="#FFFFFF" enable-background="new    " d="M496.46,202.45c0,0-41.15,22.34-47,67"/>
<linearGradient id="SVGID_17_" gradientUnits="userSpaceOnUse" x1="285.5925" y1="-48.9238" x2="285.5925" y2="116.9277" gradientTransform="matrix(-1 0.05 -0.05 -1 721.6751 684.3572)">
	<stop  offset="0" style="stop-color:#808080;stop-opacity:0.25"/>
	<stop  offset="0.54" style="stop-color:#808080;stop-opacity:0.12"/>
	<stop  offset="1" style="stop-color:#808080;stop-opacity:0.1"/>
</linearGradient>
<polygon fill="url(#SVGID_17_)" points="295.307,588.456 565.166,574.963 573.459,740.813 303.599,754.307 "/>
<rect x="302.732" y="584.266" transform="matrix(-0.9987 0.0511 -0.0511 -0.9987 899.4286 1300.3094)" fill="#EEEEEE" width="260.71" height="154.78"/>
<rect x="311.384" y="601.391" transform="matrix(0.9987 -0.0511 0.0511 0.9987 -30.9354 17.5643)" fill="#6C63FF" width="33.17" height="24.55"/>
<rect x="341.358" y="661.877" transform="matrix(0.9987 -0.0511 0.0511 0.9987 -33.5021 21.5717)" fill="#6C63FF" width="127.37" height="7.96"/>
<rect x="376.768" y="680.87" transform="matrix(0.9987 -0.0511 0.0511 0.9987 -34.3746 22.5185)" fill="#6C63FF" width="92.88" height="5.31"/>
<g>
	<path fill="#FFFDFD" d="M272.935,193.857l13.274,9.082c-8.853,11.647-17.236,25.849-25.15,42.616
		c-0.469,1.397-1.168,3.733-2.096,6.986c-6.058,13.972-4.432,21.428,4.891,22.356c5.12,0.938,12.106,1.397,20.958,1.397h5.589
		l0.699-0.698c1.856-9.781,3.024-20.489,3.493-32.137l15.37,0.699c-0.469,1.867-1.167,5.36-2.096,10.479
		c-0.469,2.794-0.939,6.528-1.397,11.178c-0.469,2.336-0.938,5.36-1.397,9.082l0.699,0.699c6.047,0,10.01-0.229,11.876-0.699
		l0.699,16.068c-1.397,0.47-3.962,0.698-7.685,0.698c-3.733,0-6.288,0.24-7.685,0.699l-0.698,13.973h-18.165
		c0.458-0.47,0.928-2.096,1.397-4.891c0.928-3.733,1.626-6.757,2.096-9.082l-0.699-0.699c-14.441,0-25.619-0.927-33.534-2.794
		c-10.25-3.253-15.37-9.311-15.37-18.164c0-6.517,3.493-18.863,10.479-37.027C255.469,214.586,263.613,201.313,272.935,193.857z"/>
</g>
<g>
	<path fill="#FFFDFD" d="M508.488,216.113l13.273,9.082c-8.853,11.647-17.236,25.849-25.15,42.616
		c-0.469,1.397-1.168,3.733-2.096,6.986c-6.059,13.973-4.432,21.428,4.891,22.356c5.119,0.939,12.105,1.397,20.958,1.397h5.589
		l0.699-0.699c1.856-9.781,3.023-20.489,3.493-32.137l15.369,0.699c-0.469,1.867-1.167,5.36-2.096,10.479
		c-0.469,2.794-0.938,6.528-1.397,11.178c-0.469,2.336-0.938,5.36-1.396,9.082l0.698,0.699c6.048,0,10.01-0.229,11.877-0.699
		l0.698,16.068c-1.397,0.47-3.962,0.699-7.685,0.699c-3.733,0-6.288,0.24-7.686,0.698l-0.698,13.973h-18.164
		c0.459-0.47,0.928-2.096,1.397-4.89c0.928-3.733,1.626-6.757,2.096-9.083l-0.699-0.698c-14.441,0-25.619-0.928-33.533-2.794
		c-10.25-3.253-15.37-9.312-15.37-18.165c0-6.517,3.493-18.863,10.479-37.027C491.022,236.842,499.165,223.568,508.488,216.113z"/>
</g>
<g>
	<path fill="#FFFDFD" d="M407.632,162.229l3.493,4.891l2.096-0.699c7.445,0,13.274,2.794,17.466,8.383
		c4.192,3.264,6.288,9.552,6.288,18.863c0,12.575-4.661,24.921-13.973,37.027c-9.322,12.117-20.26,18.165-32.835,18.165
		c-8.853,0-15.839-3.253-20.958-9.781c-4.192-6.047-6.528-13.973-6.986-23.753c0-12.575,3.952-24.211,11.876-34.931
		C383.409,168.757,394.587,162.699,407.632,162.229z M406.234,182.489l-2.794-6.288c-6.986,1.397-12.815,7.456-17.465,18.164
		c-5.589,11.178-8.384,20.5-8.384,27.945c0,4.192,0.928,7.925,2.794,11.178c1.856,2.794,4.891,4.432,9.082,4.89
		c7.915-0.458,14.671-6.288,20.26-17.465c5.589-11.178,8.383-20.489,8.383-27.945c0-1.855-0.24-3.722-0.698-5.589v-2.794
		C416.015,180.863,412.281,180.164,406.234,182.489z"/>
</g>
</svg>
